<svg id="visual" viewBox="0 0 2560 1600" width="2560" height="1600" xmlns="http://www.w3.org/2000/svg" xmlns:xlink="http://www.w3.org/1999/xlink" version="1.1"><rect x="0" y="0" width="2560" height="1600" fill="#8abbed"></rect><path d="M837 0L877.7 29.7C918.3 59.3 999.7 118.7 964.8 178C930 237.3 779 296.7 791.8 355.8C804.7 415 981.3 474 1080.2 533.2C1179 592.3 1200 651.7 1201.3 711C1202.7 770.3 1184.3 829.7 1111.7 889C1039 948.3 912 1007.7 879.7 1066.8C847.3 1126 909.7 1185 994.7 1244.2C1079.7 1303.3 1187.3 1362.7 1247.3 1422C1307.3 1481.3 1319.7 1540.7 1325.8 1570.3L1332 1600L0 1600L0 1570.3C0 1540.7 0 1481.3 0 1422C0 1362.7 0 1303.3 0 1244.2C0 1185 0 1126 0 1066.8C0 1007.7 0 948.3 0 889C0 829.7 0 770.3 0 711C0 651.7 0 592.3 0 533.2C0 474 0 415 0 355.8C0 296.7 0 237.3 0 178C0 118.7 0 59.3 0 29.7L0 0Z" fill="#4081ea" stroke-linecap="round" stroke-linejoin="miter"></path></svg>